<?xml version="1.0" encoding="UTF-8" standalone="no"?>
<!-- Created with Inkscape (http://www.inkscape.org/) -->

<svg
   width="215mm"
   height="40mm"
   viewBox="0 0 215 40"
   version="1.1"
   id="svg1"
   xml:space="preserve"
   xmlns="http://www.w3.org/2000/svg"
   xmlns:svg="http://www.w3.org/2000/svg"><defs
     id="defs1"><clipPath
       clipPathUnits="userSpaceOnUse"
       id="clipPath22"><path
         id="path22"
         style="display:none;fill:#7d81ff;stroke:#7574ff;stroke-width:0.115246;stroke-linecap:round"
         d="M 49.902065,142.69439 69.912571,142.8675 56.24223,121.16649 37.368972,120.86702 Z" /><path
         id="lpe_path-effect22"
         style="fill:#7d81ff;stroke:#7574ff;stroke-width:0.115246;stroke-linecap:round"
         class="powerclip"
         d="m 21.317445,126.20547 h 43.613109 v 32.61356 H 21.317445 Z m 28.58462,16.48892 20.010506,0.17311 -13.670341,-21.70101 -18.873258,-0.29947 z" /></clipPath></defs><path
     id="rect53-5-3-2"
     style="fill:#bdc2c6;fill-opacity:1;stroke:#a9afb2;stroke-width:0.6;stroke-linecap:round;stroke-dasharray:none;stroke-opacity:0.415238"
     d="m 39.373518,153.34118 20.010506,0.17311 -13.670341,-21.70101 -18.873257,-0.29947 z"
     clip-path="url(#clipPath22)"
     transform="translate(-23.198995,-116.74333)" /><path
     id="rect53-5-3"
     style="fill:#7d81ff;fill-opacity:1;stroke:#93b7e7;stroke-width:0.6;stroke-linecap:round;stroke-dasharray:none;stroke-opacity:0.556863;paint-order:normal"
     d="M 27.086768,24.852301 46.420349,25.003081 33.063795,3.3007408 14.623753,3.0012508 Z" /><path
     id="rect23-8"
     style="fill:#a8adb2;fill-opacity:0.415686;stroke-width:0.411348;stroke-linecap:round;stroke-opacity:0.415238"
     d="m 26.65429,25.362721 2.776624,0.0808 -0.211873,0.24378 -2.386984,-0.0207 z" /><path
     id="rect23-2"
     style="fill:#b4b9be;stroke-width:0.411348;stroke-linecap:round;stroke-opacity:0.415238"
     d="m 26.537486,25.664291 2.671735,0.0205 0.175396,0.28948 -2.689275,-0.0205 z" /><path
     id="rect23-6"
     style="fill:#b4b9be;stroke-width:0.999999;stroke-linecap:round;stroke-opacity:0.415238"
     d="m 20.475419,15.114181 6.228068,10.83661 -0.388539,0.0188 -6.117425,-10.93101 z" /><path
     id="rect23-6-4"
     style="fill:#a8adb2;fill-opacity:0.415686;stroke-width:0.999999;stroke-linecap:round;stroke-opacity:0.415238"
     d="m 20.543203,14.807961 6.289811,10.86096 -0.291893,-0.002 -6.278914,-10.93204 z" /><path
     id="rect23-9"
     style="fill:#a8adb2;fill-opacity:0.415686;stroke-width:0.208666;stroke-linecap:round;stroke-opacity:0.415238"
     d="m 20.25639,14.733611 0.242247,10e-4 0.04548,0.0733 -0.281946,-0.0731 z" /><path
     id="rect23-8-9"
     style="fill:#a8adb2;fill-opacity:0.415686;stroke-width:0.411348;stroke-linecap:round;stroke-opacity:0.415238"
     d="m 29.431188,25.442521 0.309549,0.53635 -0.356453,-0.003 -0.169818,-0.28334 z" /></svg>
