<?xml version="1.0" encoding="UTF-8" standalone="no"?>
<!-- Created with Inkscape (http://www.inkscape.org/) -->

<svg
   width="215mm"
   height="40mm"
   viewBox="0 0 215 40"
   version="1.1"
   id="svg1"
   sodipodi:docname="rpnglogo.svg"
   xml:space="preserve"
   inkscape:export-filename="bgremovallogo.svg"
   inkscape:export-xdpi="96"
   inkscape:export-ydpi="96"
   inkscape:version="1.3.2 (091e20e, 2023-11-25, custom)"
   xmlns:inkscape="http://www.inkscape.org/namespaces/inkscape"
   xmlns:sodipodi="http://sodipodi.sourceforge.net/DTD/sodipodi-0.dtd"
   xmlns="http://www.w3.org/2000/svg"
   xmlns:svg="http://www.w3.org/2000/svg"><sodipodi:namedview
     id="namedview1"
     pagecolor="#ffffff"
     bordercolor="#000000"
     borderopacity="0.25"
     inkscape:showpageshadow="2"
     inkscape:pageopacity="0.0"
     inkscape:pagecheckerboard="0"
     inkscape:deskcolor="#d1d1d1"
     inkscape:document-units="mm"
     showgrid="true"
     showguides="true"
     inkscape:zoom="0.97169178"
     inkscape:cx="337.04103"
     inkscape:cy="112.69006"
     inkscape:window-width="1920"
     inkscape:window-height="1027"
     inkscape:window-x="-8"
     inkscape:window-y="-8"
     inkscape:window-maximized="1"
     inkscape:current-layer="svg1"><inkscape:grid
       id="grid53"
       units="mm"
       originx="0"
       originy="0"
       spacingx="0.99999998"
       spacingy="1"
       empcolor="#0099e5"
       empopacity="0.30196078"
       color="#0099e5"
       opacity="0.14901961"
       empspacing="5"
       dotted="false"
       gridanglex="30"
       gridanglez="30"
       visible="true" /></sodipodi:namedview><defs
     id="defs1"><inkscape:path-effect
       effect="powerclip"
       id="path-effect22"
       is_visible="true"
       lpeversion="1"
       inverse="true"
       flatten="false"
       hide_clip="false"
       message=" S  " /><clipPath
       clipPathUnits="userSpaceOnUse"
       id="clipPath22"><path
         id="path22"
         style="display:none;fill:#7d81ff;stroke:#7574ff;stroke-width:0.115246;stroke-linecap:round"
         d="M 49.902065,142.69439 69.912571,142.8675 56.24223,121.16649 37.368972,120.86702 Z"
         sodipodi:nodetypes="ccccc" /><path
         id="lpe_path-effect22"
         style="fill:#7d81ff;stroke:#7574ff;stroke-width:0.115246;stroke-linecap:round"
         class="powerclip"
         d="m 21.317445,126.20547 h 43.613109 v 32.61356 H 21.317445 Z m 28.58462,16.48892 20.010506,0.17311 -13.670341,-21.70101 -18.873258,-0.29947 z" /></clipPath></defs><path
     id="rect53-5-3-2"
     style="fill:#bdc2c6;fill-opacity:1;stroke:#a9afb2;stroke-width:0.6;stroke-linecap:round;stroke-dasharray:none;stroke-opacity:0.415238"
     d="m 39.373518,153.34118 20.010506,0.17311 -13.670341,-21.70101 -18.873257,-0.29947 z"
     sodipodi:nodetypes="ccccc"
     clip-path="url(#clipPath22)"
     inkscape:path-effect="#path-effect22"
     inkscape:original-d="m 39.373518,153.34118 20.010506,0.17311 -13.670341,-21.70101 -18.873257,-0.29947 z"
     transform="translate(-23.198995,-116.74333)" /><path
     id="rect53-5-3"
     style="fill:#7d81ff;fill-opacity:1;stroke:#93b7e7;stroke-width:0.6;stroke-linecap:round;stroke-dasharray:none;stroke-opacity:0.556863;paint-order:normal"
     d="M 27.086768,24.852301 46.420349,25.003081 33.063795,3.3007408 14.623753,3.0012508 Z"
     sodipodi:nodetypes="ccccc" /><path
     id="rect23-8"
     style="fill:#a8adb2;fill-opacity:0.415686;stroke-width:0.411348;stroke-linecap:round;stroke-opacity:0.415238"
     d="m 26.65429,25.362721 2.776624,0.0808 -0.211873,0.24378 -2.386984,-0.0207 z"
     sodipodi:nodetypes="ccccc" /><path
     id="rect23-2"
     style="fill:#b4b9be;stroke-width:0.411348;stroke-linecap:round;stroke-opacity:0.415238"
     d="m 26.537486,25.664291 2.671735,0.0205 0.175396,0.28948 -2.689275,-0.0205 z"
     sodipodi:nodetypes="ccccc" /><path
     id="rect23-6"
     style="fill:#b4b9be;stroke-width:0.999999;stroke-linecap:round;stroke-opacity:0.415238"
     d="m 20.475419,15.114181 6.228068,10.83661 -0.388539,0.0188 -6.117425,-10.93101 z"
     sodipodi:nodetypes="ccccc" /><path
     id="rect23-6-4"
     style="fill:#a8adb2;fill-opacity:0.415686;stroke-width:0.999999;stroke-linecap:round;stroke-opacity:0.415238"
     d="m 20.543203,14.807961 6.289811,10.86096 -0.291893,-0.002 -6.278914,-10.93204 z"
     sodipodi:nodetypes="ccccc" /><path
     id="rect23-9"
     style="fill:#a8adb2;fill-opacity:0.415686;stroke-width:0.208666;stroke-linecap:round;stroke-opacity:0.415238"
     d="m 20.25639,14.733611 0.242247,10e-4 0.04548,0.0733 -0.281946,-0.0731 z"
     sodipodi:nodetypes="ccccc" /><path
     id="rect23-8-9"
     style="fill:#a8adb2;fill-opacity:0.415686;stroke-width:0.411348;stroke-linecap:round;stroke-opacity:0.415238"
     d="m 29.431188,25.442521 0.309549,0.53635 -0.356453,-0.003 -0.169818,-0.28334 z"
     sodipodi:nodetypes="ccccc" /><path
     style="font-weight:900;font-size:25.4px;line-height:0px;font-family:Arial;-inkscape-font-specification:'Arial, Heavy';letter-spacing:0.264583px;stroke-width:8;stroke-linecap:round;stroke-dasharray:none;stroke-opacity:0.415238;paint-order:normal"
     d="m 51.908791,12.617923 h 5.097363 v 6.300391 c 0.504362,-0.529167 1.07487,-0.926042 1.711523,-1.190625 0.644922,-0.264583 1.35599,-0.396875 2.133203,-0.396875 1.604037,0 2.931088,0.578776 3.981153,1.736328 1.050065,1.149284 1.575097,2.80293 1.575097,4.960937 0,1.438672 -0.239779,2.707845 -0.719336,3.80752 -0.479557,1.091406 -1.14515,1.909961 -1.996777,2.455664 -0.843359,0.537435 -1.781803,0.806152 -2.815332,0.806152 -0.884701,0 -1.694987,-0.190169 -2.430859,-0.570508 -0.553971,-0.297656 -1.157552,-0.855761 -1.810743,-1.674316 v 1.947168 h -4.725292 z m 5.060156,11.558984 c 0,1.132748 0.21084,1.955437 0.632519,2.468067 0.429948,0.504362 0.971517,0.756543 1.624707,0.756543 0.603581,0 1.107943,-0.248047 1.513086,-0.744141 0.413411,-0.504362 0.620117,-1.347721 0.620117,-2.530078 0,-1.041797 -0.202571,-1.806608 -0.607714,-2.294433 -0.396875,-0.487826 -0.880567,-0.731739 -1.451075,-0.731739 -0.686263,0 -1.248502,0.256315 -1.686718,0.768946 -0.429948,0.504362 -0.644922,1.273307 -0.644922,2.306835 z M 78.255502,17.62847 h 4.725293 v 12.439551 l 0.0124,0.58291 c 0,0.826823 -0.177767,1.612304 -0.5333,2.356445 -0.347266,0.752409 -0.814421,1.360124 -1.401465,1.823145 -0.578776,0.463021 -1.318783,0.797884 -2.22002,1.004589 -0.892969,0.206706 -1.918229,0.310059 -3.075781,0.310059 -2.645833,0 -4.464844,-0.396875 -5.457031,-1.190625 -0.983919,-0.79375 -1.475879,-1.856217 -1.475879,-3.187402 0,-0.165365 0.0083,-0.388607 0.02481,-0.669727 l 4.898925,0.558106 c 0.124024,0.454753 0.314193,0.768945 0.570508,0.942578 0.372071,0.256315 0.839226,0.384472 1.401465,0.384472 0.727604,0 1.269173,-0.194303 1.624707,-0.58291 0.363802,-0.388607 0.545703,-1.066601 0.545703,-2.033984 V 28.3689 c -0.496093,0.587044 -0.992187,1.012858 -1.488281,1.277441 -0.777213,0.413411 -1.616439,0.620117 -2.517676,0.620117 -1.761133,0 -3.183268,-0.768945 -4.266406,-2.306836 -0.768945,-1.091406 -1.153418,-2.534212 -1.153418,-4.328418 0,-2.050521 0.496094,-3.613216 1.488281,-4.688086 0.992188,-1.074869 2.2903,-1.612304 3.894336,-1.612304 1.025261,0 1.86862,0.173633 2.530078,0.520898 0.669727,0.347266 1.293978,0.921908 1.872754,1.723926 z m -4.750097,6.387207 c 0,0.950846 0.202571,1.65778 0.607714,2.120801 0.405143,0.454753 0.938444,0.682129 1.599903,0.682129 0.628385,0 1.153418,-0.235645 1.575097,-0.706934 0.429948,-0.479557 0.644922,-1.198893 0.644922,-2.158008 0,-0.959115 -0.223242,-1.690853 -0.669726,-2.195215 -0.446485,-0.51263 -0.992188,-0.768945 -1.63711,-0.768945 -0.644921,0 -1.161686,0.235645 -1.550293,0.706934 -0.380338,0.463021 -0.570507,1.2361 -0.570507,2.319238 z m 12.803352,1.723926 h 5.395019 v 5.060156 h -5.395019 z m 8.760188,-8.111133 h 4.725292 v 2.158008 c 0.454753,-0.93431 0.921913,-1.575098 1.401463,-1.922363 0.48783,-0.355534 1.08727,-0.533301 1.79834,-0.533301 0.74414,0 1.55856,0.23151 2.44326,0.694531 l -1.56269,3.59668 c -0.59531,-0.248047 -1.0666,-0.372071 -1.41387,-0.372071 -0.66146,0 -1.17409,0.272852 -1.53789,0.818555 -0.5209,0.768945 -0.78135,2.207617 -0.78135,4.316016 v 4.415234 h -5.072555 z m 26.520345,7.838281 h -10.12031 c 0.0909,0.810287 0.31005,1.413867 0.65732,1.810742 0.48783,0.570508 1.12448,0.855762 1.90996,0.855762 0.49609,0 0.96738,-0.124023 1.41387,-0.37207 0.27285,-0.157097 0.56637,-0.434082 0.88056,-0.830957 l 4.97334,0.458886 c -0.76067,1.322917 -1.67845,2.273763 -2.75332,2.852539 -1.07487,0.570508 -2.61689,0.855762 -4.62607,0.855762 -1.74459,0 -3.11712,-0.243913 -4.11758,-0.731738 -1.00045,-0.496094 -1.83141,-1.277442 -2.49287,-2.344043 -0.65319,-1.07487 -0.97978,-2.335775 -0.97978,-3.782715 0,-2.058789 0.65732,-3.724837 1.97197,-4.998144 1.32291,-1.273307 3.14606,-1.909961 5.46943,-1.909961 1.88516,0 3.37344,0.285254 4.46485,0.855762 1.0914,0.570507 1.92236,1.39733 2.49287,2.480468 0.57051,1.083138 0.85576,2.492871 0.85576,4.229199 z m -5.13457,-2.418457 c -0.0992,-0.975651 -0.3638,-1.674316 -0.79375,-2.095996 -0.42168,-0.421679 -0.97979,-0.632519 -1.67432,-0.632519 -0.80202,0 -1.44281,0.318327 -1.92236,0.95498 -0.30593,0.396875 -0.50023,0.988054 -0.58291,1.773535 z m 7.7556,-5.419824 h 4.71289 v 1.922363 c 0.67799,-0.802018 1.36012,-1.372526 2.04638,-1.711523 0.69453,-0.338997 1.52963,-0.508496 2.50528,-0.508496 1.05006,0 1.88102,0.186035 2.49287,0.558105 0.61185,0.372071 1.11207,0.926042 1.50068,1.661914 0.79375,-0.859895 1.51722,-1.442805 2.17041,-1.74873 0.65319,-0.314193 1.45935,-0.471289 2.41846,-0.471289 1.41387,0 2.51767,0.42168 3.31142,1.265039 0.79375,0.835091 1.19063,2.145606 1.19063,3.931543 v 8.272363 h -5.06016 v -7.503418 c 0,-0.595313 -0.11575,-1.037663 -0.34726,-1.327051 -0.339,-0.454753 -0.76068,-0.682129 -1.26504,-0.682129 -0.59531,0 -1.07487,0.214974 -1.43867,0.644922 -0.36381,0.429948 -0.54571,1.120345 -0.54571,2.071192 v 6.796484 h -5.06015 v -7.255371 c 0,-0.578776 -0.0331,-0.971517 -0.0992,-1.178223 -0.10749,-0.330729 -0.29352,-0.595312 -0.55811,-0.79375 -0.26458,-0.206705 -0.57464,-0.310058 -0.93017,-0.310058 -0.57878,0 -1.0542,0.219108 -1.42627,0.657324 -0.37207,0.438216 -0.55811,1.157552 -0.55811,2.158008 v 6.72207 h -5.06015 z m 25.00725,6.622852 c 0,-2.00918 0.678,-3.662826 2.03399,-4.960938 1.35599,-1.30638 3.1874,-1.95957 5.49424,-1.95957 2.63756,0 4.6302,0.764811 5.97793,2.294433 1.08313,1.231967 1.6247,2.749187 1.6247,4.55166 0,2.025717 -0.67386,3.687631 -2.02158,4.985743 -1.33945,1.289843 -3.19567,1.934765 -5.56865,1.934765 -2.11667,0 -3.82819,-0.537435 -5.13457,-1.612305 -1.60404,-1.331185 -2.40606,-3.075781 -2.40606,-5.233788 z m 5.06016,-0.0124 c 0,1.174089 0.23564,2.042253 0.70693,2.604492 0.47956,0.56224 1.07901,0.84336 1.79834,0.84336 0.72761,0 1.32292,-0.276986 1.78594,-0.830957 0.47129,-0.553971 0.70693,-1.442806 0.70693,-2.666504 0,-1.141016 -0.23564,-1.98851 -0.70693,-2.542481 -0.47129,-0.562239 -1.0542,-0.843359 -1.74873,-0.843359 -0.73587,0 -1.34359,0.285254 -1.82314,0.855762 -0.47956,0.562239 -0.71934,1.422135 -0.71934,2.579687 z m 10.3973,-6.610449 h 5.25859 l 2.03947,6.662943 0.51541,1.683834 2.6417,-8.346777 h 5.09737 l -5.59346,13.171289 h -4.47725 z m 21.88187,4.266406 -4.82452,-0.508496 c 0.18191,-0.843359 0.44236,-1.504818 0.78135,-1.984375 0.34727,-0.487825 0.84336,-0.909505 1.48828,-1.265039 0.46302,-0.256315 1.09967,-0.454753 1.90996,-0.595312 0.81029,-0.14056 1.68672,-0.21084 2.6293,-0.21084 1.51309,0 2.72852,0.08682 3.64629,0.260449 0.91777,0.165365 1.68258,0.516764 2.29443,1.054199 0.42995,0.372071 0.76895,0.901237 1.017,1.5875 0.24805,0.677995 0.37207,1.327051 0.37207,1.947168 v 5.816699 c 0,0.620117 0.0372,1.107943 0.11162,1.463477 0.0827,0.347265 0.25631,0.79375 0.52089,1.339453 h -4.73769 c -0.19017,-0.338997 -0.31419,-0.595312 -0.37207,-0.768945 -0.0579,-0.181901 -0.11574,-0.463021 -0.17363,-0.84336 -0.66146,0.636654 -1.31879,1.091407 -1.97198,1.364258 -0.89297,0.363802 -1.93063,0.545703 -3.11298,0.545703 -1.57097,0 -2.76573,-0.363802 -3.58428,-1.091406 -0.81029,-0.727604 -1.21543,-1.624707 -1.21543,-2.691309 0,-1.000455 0.29352,-1.823144 0.88057,-2.468066 0.58704,-0.644922 1.67018,-1.124479 3.24941,-1.438672 1.89343,-0.380339 3.12126,-0.644922 3.6835,-0.79375 0.56223,-0.157096 1.15754,-0.359668 1.78593,-0.607715 0,-0.620117 -0.12816,-1.054199 -0.38447,-1.302246 -0.25631,-0.248047 -0.70693,-0.37207 -1.35186,-0.37207 -0.82682,0 -1.44694,0.132292 -1.86035,0.396875 -0.32246,0.206706 -0.58291,0.595313 -0.78134,1.16582 z m 4.37802,2.654102 c -0.69453,0.248047 -1.418,0.467155 -2.17041,0.657324 -1.02526,0.272851 -1.67432,0.541569 -1.94717,0.806152 -0.28112,0.272852 -0.42168,0.582911 -0.42168,0.930176 0,0.396875 0.13643,0.72347 0.40928,0.979785 0.28112,0.248047 0.6904,0.372071 1.22783,0.372071 0.56224,0 1.08314,-0.136426 1.5627,-0.409278 0.48783,-0.272851 0.83096,-0.60358 1.02939,-0.992187 0.20671,-0.396875 0.31006,-0.909506 0.31006,-1.537891 z m 8.40052,-11.931055 h 5.06015 v 18.181836 h -5.06015 z"
     id="text1"
     aria-label="bg.removal"
     sodipodi:nodetypes="ccccscsccscccccscscscscscccccccscscccscsccscssscccscscscscscccccccccsccscsccccccsccccsccscsssscccscccccccssccscsccscsssccsccssscccscscscscsscscscscscccccccccccccsscccssccccccscsscccsscccccscsccscccccc" /><text
     xml:space="preserve"
     style="font-style:normal;font-variant:normal;font-weight:bold;font-stretch:normal;font-size:11.2889px;line-height:0px;font-family:'Segoe UI';-inkscape-font-specification:'Segoe UI, Bold';font-variant-ligatures:normal;font-variant-caps:normal;font-variant-numeric:normal;font-variant-east-asian:normal;letter-spacing:0.264583px;fill:#000000;stroke-width:1;stroke-linecap:round;stroke-opacity:0.415238"
     x="164.46402"
     y="19.332689"
     id="text2"><tspan
       sodipodi:role="line"
       id="tspan2"
       style="stroke-width:1"
       x="164.46402"
       y="19.332689" /></text><text
     xml:space="preserve"
     style="font-style:normal;font-variant:normal;font-weight:bold;font-stretch:normal;font-size:19.7556px;line-height:0px;font-family:'Segoe UI';-inkscape-font-specification:'Segoe UI, Bold';font-variant-ligatures:normal;font-variant-caps:normal;font-variant-numeric:normal;font-variant-east-asian:normal;letter-spacing:0.264583px;fill:#000000;stroke-width:1;stroke-linecap:round;stroke-opacity:0.415238"
     x="189.24254"
     y="12.525405"
     id="text3"><tspan
       sodipodi:role="line"
       id="tspan3"
       style="stroke-width:1"
       x="189.24254"
       y="12.525405" /></text></svg>
